<svg xmlns="http://www.w3.org/2000/svg" xmlns:xlink="http://www.w3.org/1999/xlink" width="500" height="500" viewBox="0 0 500 500" fill="none"><path d="M229.436 144.824C227.261 151.308 229.622 160.216 234.781 164.711L281.309 205.605C286.426 210.142 292.392 208.526 294.567 202.042L314.392 143.395C316.589 136.89 314.206 128.003 309.069 123.487L262.54 82.593C257.403 78.0769 251.457 79.6722 249.282 86.1561L229.436 144.824ZM87.4695 182.838C85.2734 189.343 87.6766 198.209 92.7728 202.725L139.301 243.619C144.418 248.156 150.384 246.54 152.559 240.056L172.405 181.388C174.601 174.883 172.219 165.996 167.081 161.48L120.573 120.607C115.457 116.07 109.49 117.686 107.315 124.17L87.4695 182.838Z"   fill="#96C24E" ></path><path     fill="#FBECDE"  d="M112.142 297.501C112.432 298.205 112.391 298.827 112.577 299.511L56.0225 164.442C56.1053 164.318 56.2503 164.421 56.1675 164.173C54.8624 159.263 57.804 154.25 62.7552 152.903C65.1996 152.282 67.6441 152.613 69.6743 153.732C69.7572 153.815 69.5707 153.587 69.6122 153.545L144.335 191.062L167.122 82.2617C168.365 78.1598 171.555 74.5967 176.092 73.4158C180.94 72.0901 185.829 73.6645 188.978 77.0205L262.706 159.367L309.545 88.1656C310.746 86.757 312.217 85.5347 314.144 85.0584C319.095 83.7116 324.212 86.5912 325.517 91.501C325.621 91.8116 325.724 91.6666 325.849 91.7082L344.576 237.88C344.576 237.673 344.431 237.487 344.41 237.3C345.839 247.472 341.303 257.436 333.161 263.299C315.117 275.335 279.9 289.463 237.598 300.401C194.281 311.567 155.749 316.332 134.08 314.219C124.385 312.976 115.85 306.761 112.142 297.501L112.142 297.501Z"></path><path fill-rule="evenodd"  fill="rgba(0, 0, 0, 1)"  d="M112.606 297.315Q112.605 297.313 112.604 297.311L112.583 297.319L112.23 297.387L56.6196 164.574Q56.6377 164.541 56.6518 164.505Q56.7325 164.301 56.6473 164.032Q56.197 162.328 56.4449 160.601Q56.6853 158.926 57.5468 157.454Q58.4082 155.982 59.7594 154.937Q61.1575 153.856 62.8864 153.386Q64.6016 152.95 66.3086 153.161Q67.9521 153.365 69.3878 154.145Q69.3902 154.147 69.3925 154.148Q69.5365 154.256 69.7139 154.249Q69.7867 154.247 69.8521 154.225L144.691 191.8L167.607 82.3859Q168.059 80.9026 168.842 79.568Q169.642 78.2031 170.729 77.0934Q171.85 75.9496 173.206 75.15Q174.62 74.3157 176.218 73.8997Q177.944 73.4277 179.702 73.4478Q181.401 73.4672 183.032 73.9426Q184.634 74.4092 186.056 75.2813Q187.473 76.1496 188.605 77.3541L188.613 77.3627L262.767 160.184L309.945 88.4666Q310.891 87.3626 311.863 86.6695Q313.005 85.8551 314.264 85.5437L314.27 85.5424L314.275 85.5408C318.903 84.282 323.802 86.9946 325.034 91.6295L325.038 91.6446L325.043 91.6594Q325.16 92.0121 325.4 92.1373L344.003 237.344L343.913 237.355Q343.915 237.37 343.917 237.386Q344.432 241.072 343.905 244.758Q343.39 248.358 341.917 251.714Q340.456 255.041 338.165 257.879Q335.856 260.741 332.876 262.888Q326.124 267.391 316.346 272.187Q306.507 277.012 294.294 281.796Q281.821 286.682 267.686 291.206Q253.059 295.887 237.473 299.917Q221.491 304.037 206.099 307.077Q191.181 310.025 177.656 311.794Q164.365 313.532 153.283 314.022Q142.228 314.51 134.137 313.722Q130.582 313.265 127.272 311.921Q123.981 310.585 121.167 308.467Q118.323 306.327 116.166 303.539Q113.965 300.694 112.622 297.353Q112.614 297.334 112.606 297.315ZM112.992 299.402C112.983 299.384 112.974 299.366 112.965 299.348C112.675 298.759 112.405 298.155 112.157 297.538C112.431 298.227 112.394 298.839 112.577 299.511L111.794 297.64L111.729 297.484L56.0225 164.442C56.0526 164.397 56.0909 164.382 56.1235 164.369C56.1806 164.346 56.2202 164.331 56.1675 164.173C54.8624 159.263 57.804 154.25 62.7552 152.903C64.9792 152.338 67.2033 152.561 69.1153 153.448C69.1617 153.47 69.2078 153.492 69.2538 153.514C69.3541 153.563 69.4534 153.613 69.5519 153.665C69.5928 153.687 69.6336 153.709 69.6743 153.732C69.7081 153.765 69.6971 153.748 69.675 153.712C69.6467 153.666 69.5999 153.59 69.6067 153.556C69.6076 153.552 69.6094 153.548 69.6122 153.545L70.0609 153.771L70.1884 153.835L143.873 190.83L144.335 191.062L144.441 190.556L167.122 82.2617C168.365 78.1598 171.555 74.5967 176.092 73.4158C180.94 72.0901 185.829 73.6645 188.978 77.0205L262.361 158.981L262.706 159.367L262.99 158.934L309.545 88.1656C310.746 86.757 312.217 85.5347 314.144 85.0584C319.095 83.7116 324.212 86.5912 325.517 91.501C325.59 91.7205 325.663 91.7124 325.744 91.7035C325.777 91.6998 325.812 91.696 325.849 91.7082L344.499 237.282L344.5 237.29L344.56 237.755C344.523 237.605 344.437 237.465 344.413 237.325C344.439 237.51 344.463 237.695 344.485 237.88C344.486 237.893 344.488 237.905 344.489 237.918C345.654 247.873 341.138 257.555 333.161 263.299C315.117 275.335 279.9 289.463 237.598 300.401C194.281 311.567 155.749 316.332 134.08 314.219C125.065 313.063 117.052 307.608 112.992 299.402ZM344.576 237.88L344.56 237.755C344.57 237.796 344.576 237.838 344.576 237.88Z"></path><g ><path     fill="#C3D7DF"  d="M187.414 272.873L148.816 282.497L136.922 234.793L144.137 222.692L182.801 213.052L194.712 260.822L187.414 272.873ZM151.75 232.428L160.601 267.925L179.801 263.138L170.951 227.641L151.75 232.428ZM218.887 265.026L204.371 268.645L190.059 211.243L216.187 204.728L236.362 250.507L237.021 250.343L225.095 202.507L238.95 199.053L253.263 256.455L227.794 262.805L207.554 216.762L206.894 216.927L218.887 265.026ZM305.304 243.41L261.164 254.415L246.852 197.013L290.992 186.007L293.723 196.96L264.098 204.346L267.158 216.618L295.199 209.627L297.93 220.58L269.889 227.571L272.948 239.843L302.574 232.457L305.304 243.41Z"></path><path fill-rule="evenodd"  fill="rgba(0, 0, 0, 1)"  d="M264.098,204.346l3.06,12.272l28.041,-6.991l2.731,10.953l-28.041,6.991l3.059,12.272l29.626,-7.386l2.73,10.953l-44.14,11.005l-14.312,-57.402l44.14,-11.006l2.731,10.953l-28.655,7.144zM294.471,210.839l-28.042,6.992l-3.543,-14.213l29.625,-7.387l-2.247,-9.012l-42.2,10.522l13.828,55.462l42.2,-10.522l-2.247,-9.012l-29.625,7.387l-3.544,-14.213l28.042,-6.992zM236.362,250.507l0.659,-0.164l-11.926,-47.836l13.855,-3.454l14.313,57.402l-25.469,6.35l-19.478,-44.309l-0.762,-1.734l-0.66,0.165l11.993,48.099l-14.516,3.619l-14.312,-57.402l26.128,-6.515l19.415,44.056zM226.307,203.236l11.927,47.835l-2.448,0.611l-20.174,-45.78l-24.341,6.069l13.829,55.462l12.575,-3.135l-11.993,-48.1l2.448,-0.61l20.24,46.043l23.68,-5.904l-13.828,-55.462zM187.414,272.873l-38.598,9.624l-11.894,-47.704l7.215,-12.101l38.664,-9.64l11.911,47.77zM193.641,260.66l-11.568,-46.396l-37.29,9.298l-6.791,11.389l11.552,46.334l37.228,-9.282zM181.013,263.866l-21.141,5.271l-9.334,-37.438l21.141,-5.271zM151.75,232.428l8.851,35.497l19.2,-4.787l-8.85,-35.497l-18.23,4.545z"></path></g><path d="M108.25 283.25L202 367.625L483.25 152L211.375 452L52 330.125L108.25 283.25Z"   fill="#CE5777" ></path></svg>